<?xml version="1.0" encoding="UTF-8" standalone="no"?>
<svg viewBox="-4 -4 260 260" version="1.1" xmlns="http://www.w3.org/2000/svg"
xmlns:rdf="http://www.w3.org/1999/02/22-rdf-syntax-ns#"
xmlns:cc="http://creativecommons.org/ns#"
xmlns:dc="http://purl.org/dc/elements/1.1/">
<title>GR Logo with bad outline</title>
<desc>Geoff Ritter's personal logo example with a bad outline.</desc>
<path style="fill:#000000;stroke-width:8;stroke:#000000" d="M0,16a16 16 0 0 1 16-16h224a16 16 0 0 1 16 16V240a16 16 0 0 1-16 16H16a16 16 0 0 1-16-16Z"/>
<path style="fill:#b40000;" d="M0,16a16 16 0 0 1 16-16h224a16 16 0 0 1 16 16V240a16 16 0 0 1-16 16H16a16 16 0 0 1-16-16Z"/>
<path style="fill:#ffffff" d="M64,80a16 16 0 0 1 16-16h128a16 16 0 0 1 16 16v128a16 16 0 0 1-16 16h-16v-112a16 16 0 0 0-16-16h-64a 16 16 0 0 0-16 16v16h64v16a16 16 0 0 1-4.686 11.314l-80 80-11.3137085-11.3137085a16 16 0 0 1 0-22.627L105.37259 160H80a16 16 0 0 1-16-16Z"/>
<path style="fill:#000000" d="M32,48a16 16 0 0 1 16-16h128a16 16 0 0 1 16 16v16h-112a16 16 0 0 0-16 16v64a16 16 0 0 0 16 16h64a16 16 0 0 0 16-16v-16h-64v-16a16 16 0 0 1 16-16h64a16 16 0 0 1 16 16v64a16 16 0 0 1-16 16h-128a16 16 0 0 1-16-16Z"/>
<path style="fill:#000000" d="M0,224h256v16a16 16 0 0 1-16 16h-224a16 16 0 0 1-16-16Z"/>
<path style="fill:#ffffff" d="m 245.67967,249.8 -4.396,-6.3 c 2.548,-1.092 4.032,-3.248 4.032,-6.188 0,-4.396 -3.276,-7.112 -8.512,-7.112 h -8.484 v 19.6 h 4.536 v -5.46 h 3.948 0.224 l 3.78,5.46 z m -4.956,-12.488 c 0,2.128 -1.4,3.416 -4.172,3.416 h -3.696 v -6.832 h 3.696 c 2.772,0 4.172,1.26 4.172,3.416 z m -29.01232,8.848 v -4.536 h 9.1 v -3.528 h -9.1 v -4.256 h 10.304 v -3.64 h -14.812 v 19.6 h 15.176 v -3.64 z m -20.08028,3.64 h 4.536 v -15.904 h 6.272 V 230.2 h -17.08 v 3.696 h 6.272 z m -19.91221,0 h 4.536 v -15.904 h 6.272 V 230.2 h -17.08 v 3.696 h 6.272 z m -15.57232,0 h 4.536 v -19.6 h -4.536 z m -5.54829,0 -4.396,-6.3 c 2.548,-1.092 4.032,-3.248 4.032,-6.188 0,-4.396 -3.276,-7.112 -8.512,-7.112 h -8.484 v 19.6 h 4.536 v -5.46 h 3.948 0.224 l 3.78,5.46 z m -4.956,-12.488 c 0,2.128 -1.4,3.416 -4.172,3.416 h -3.696 v -6.832 h 3.696 c 2.772,0 4.172,1.26 4.172,3.416 z m -28.06463,-3.472 v -3.64 h -14.812 v 19.6 h 4.536 v -7.14 h 9.072 v -3.64 h -9.072 v -5.18 z m -20.220328,0 v -3.64 h -14.812 v 19.6 h 4.536 v -7.14 h 9.072 v -3.64 h -9.072 v -5.18 z m -31.280327,16.296 c 6.16,0 10.724,-4.284 10.724,-10.136 0,-5.852 -4.564,-10.136 -10.724,-10.136 -6.188,0 -10.724,4.312 -10.724,10.136 0,5.824 4.536,10.136 10.724,10.136 z m 0,-3.864 c -3.5,0 -6.132,-2.548 -6.132,-6.272 0,-3.724 2.632,-6.272 6.132,-6.272 3.5,0 6.132,2.548 6.132,6.272 0,3.724 -2.632,6.272 -6.132,6.272 z M 39.976647,246.16 v -4.536 h 9.1 v -3.528 h -9.1 v -4.256 h 10.304 v -3.64 h -14.812 v 19.6 h 15.176 v -3.64 z m -15.180328,-0.728 c -1.148,0.616 -2.296,0.84 -3.528,0.84 -3.752,0 -6.356,-2.604 -6.356,-6.272 0,-3.724 2.604,-6.272 6.412,-6.272 1.988,0 3.64,0.7 5.068,2.212 l 2.912,-2.688 c -1.904,-2.212 -4.76,-3.388 -8.204,-3.388 -6.244,0 -10.78,4.228 -10.78,10.136 0,5.908 4.536,10.136 10.696,10.136 2.8,0 5.768,-0.868 7.924,-2.492 v -7.952 h -4.144 z"/>
<path style="stroke-width:8;stroke:#FF00FF" d="M-4,-4L260,260M264,-4L-4,260"/>
<metadata>
  <rdf:RDF>
    <cc:Work rdf:about="">
      <dc:title>GR Logo with bad outline</dc:title>
      <dc:date>2021-08-04</dc:date>
      <dc:creator>
        <cc:Agent>
          <dc:title>Geoff Ritter</dc:title>
        </cc:Agent>
      </dc:creator>
      <dc:rights>
        <cc:Agent>
          <dc:title>© 2005 Geoff Ritter, All rights reserved.</dc:title>
        </cc:Agent>
      </dc:rights>
      <dc:description>Geoff Ritter's personal logo example with a bad outline.</dc:description>
      <dc:publisher>
        <cc:Agent>
          <dc:title>Geoff Ritter</dc:title>
        </cc:Agent>
      </dc:publisher>
      <dc:subject>
        <rdf:Bag>
          <rdf:li>logo</rdf:li>
          <rdf:li>Geoff Ritter</rdf:li>
        </rdf:Bag>
      </dc:subject>
      <dc:relation>https://geoffritter.com/logo/styleguide.html</dc:relation>
      <dc:source>https://geoffritter.com/logo/gr-logo.svg</dc:source>
    </cc:Work>
  </rdf:RDF>
</metadata>
</svg>