<?xml version="1.0" encoding="UTF-8" standalone="no"?>
<svg viewBox="0 0 256 256" version="1.1" xmlns="http://www.w3.org/2000/svg"
xmlns:rdf="http://www.w3.org/1999/02/22-rdf-syntax-ns#"
xmlns:cc="http://creativecommons.org/ns#"
xmlns:dc="http://purl.org/dc/elements/1.1/">
<title>GR Logo with just GR</title>
<desc>Geoff Ritter's personal logo containing a squared G with rounded corners and an intertwined reversed R.</desc>
<path style="opacity:0" d="M0,0H256V256H0Z"/>
<path style="fill:#000000; stroke-width:16; stroke:#000000" d="M64,80a16 16 0 0 1 16-16h128a16 16 0 0 1 16 16v128a16 16 0 0 1-16 16h-16v-112a16 16 0 0 0-16-16h-64a 16 16 0 0 0-16 16v16h64v16a16 16 0 0 1-4.686 11.314l-80 80-11.3137085-11.3137085a16 16 0 0 1 0-22.627L105.37259 160H80a16 16 0 0 1-16-16Z"/>
<path style="fill:#ffffff" d="M64,80a16 16 0 0 1 16-16h128a16 16 0 0 1 16 16v128a16 16 0 0 1-16 16h-16v-112a16 16 0 0 0-16-16h-64a 16 16 0 0 0-16 16v16h64v16a16 16 0 0 1-4.686 11.314l-80 80-11.3137085-11.3137085a16 16 0 0 1 0-22.627L105.37259 160H80a16 16 0 0 1-16-16Z"/>
<path style="fill:#000000" d="M32,48a16 16 0 0 1 16-16h128a16 16 0 0 1 16 16v16h-112a16 16 0 0 0-16 16v64a16 16 0 0 0 16 16h64a16 16 0 0 0 16-16v-16h-64v-16a16 16 0 0 1 16-16h64a16 16 0 0 1 16 16v64a16 16 0 0 1-16 16h-128a16 16 0 0 1-16-16Z"/>
<metadata>
  <rdf:RDF>
    <cc:Work rdf:about="">
      <dc:title>GR Logo with just GR</dc:title>
      <dc:date>2021-08-04</dc:date>
      <dc:creator>
        <cc:Agent>
          <dc:title>Geoff Ritter</dc:title>
        </cc:Agent>
      </dc:creator>
      <dc:rights>
        <cc:Agent>
          <dc:title>© 2005 Geoff Ritter, All rights reserved.</dc:title>
        </cc:Agent>
      </dc:rights>
      <dc:description>Geoff Ritter's personal logo containing a squared G with rounded corners and an intertwined reversed R.</dc:description>
      <dc:publisher>
        <cc:Agent>
          <dc:title>Geoff Ritter</dc:title>
        </cc:Agent>
      </dc:publisher>
      <dc:subject>
        <rdf:Bag>
          <rdf:li>logo</rdf:li>
          <rdf:li>Geoff Ritter</rdf:li>
        </rdf:Bag>
      </dc:subject>
      <dc:relation>https://geoffritter.com/logo/styleguide.html</dc:relation>
      <dc:source>https://geoffritter.com/logo/gr-logo-gr.svg</dc:source>
    </cc:Work>
  </rdf:RDF>
</metadata>
</svg>
