<?xml version="1.0" encoding="UTF-8" standalone="no"?>
<svg
   viewBox="0 0 1041.2223 614.90161"
   version="1.1"
   id="svg18"
   sodipodi:docname="gr-logo-warped.svg"
   width="1041.2223"
   height="614.90161"
   inkscape:version="1.1 (c68e22c387, 2021-05-23)"
   xmlns:inkscape="http://www.inkscape.org/namespaces/inkscape"
   xmlns:sodipodi="http://sodipodi.sourceforge.net/DTD/sodipodi-0.dtd"
   xmlns="http://www.w3.org/2000/svg"
   xmlns:svg="http://www.w3.org/2000/svg"
   xmlns:rdf="http://www.w3.org/1999/02/22-rdf-syntax-ns#"
   xmlns:cc="http://creativecommons.org/ns#"
   xmlns:dc="http://purl.org/dc/elements/1.1/">
  <defs
     id="defs22" />
  <sodipodi:namedview
     id="namedview20"
     pagecolor="#ffffff"
     bordercolor="#666666"
     borderopacity="1.0"
     inkscape:pageshadow="2"
     inkscape:pageopacity="0.0"
     inkscape:pagecheckerboard="0"
     showgrid="false"
     inkscape:object-paths="true"
     inkscape:snap-intersection-paths="true"
     inkscape:snap-bbox="true"
     inkscape:bbox-paths="true"
     inkscape:bbox-nodes="true"
     showguides="true"
     inkscape:guide-bbox="true"
     fit-margin-top="0"
     fit-margin-left="0"
     fit-margin-right="0"
     fit-margin-bottom="0"
     inkscape:zoom="0.85253906"
     inkscape:cx="-224.62314"
     inkscape:cy="136.65063"
     inkscape:window-width="3440"
     inkscape:window-height="1371"
     inkscape:window-x="0"
     inkscape:window-y="32"
     inkscape:window-maximized="1"
     inkscape:current-layer="svg18" />
  <title
     id="title2">GR Logo</title>
  <desc
     id="desc4">Geoff Ritter's personal logo containing a squared G with rounded corners and an intertwined reversed R on a square background with rounded corners. At the bottom is a bar containing, in all capital letters, the words GEOFF RITTER.</desc>
  <metadata
     id="metadata16">
    <rdf:RDF>
      <cc:Work
         rdf:about="">
        <dc:title>GR Logo</dc:title>
        <dc:date>2021-08-04</dc:date>
        <dc:creator>
          <cc:Agent>
            <dc:title>Geoff Ritter</dc:title>
          </cc:Agent>
        </dc:creator>
        <dc:rights>
          <cc:Agent>
            <dc:title>© 2005 Geoff Ritter, All rights reserved.</dc:title>
          </cc:Agent>
        </dc:rights>
        <dc:description>Geoff Ritter's personal logo containing a squared G with rounded corners and an intertwined reversed R on a square background with rounded corners. At the bottom is a bar containing, in all capital letters, the words GEOFF RITTER</dc:description>
        <dc:publisher>
          <cc:Agent>
            <dc:title>Geoff Ritter</dc:title>
          </cc:Agent>
        </dc:publisher>
        <dc:subject>
          <rdf:Bag>
            <rdf:li>logo</rdf:li>
            <rdf:li>Geoff Ritter</rdf:li>
          </rdf:Bag>
        </dc:subject>
        <dc:relation>https://geoffritter.com/logo/styleguide.html</dc:relation>
        <dc:source>https://geoffritter.com/logo/gr-logo.svg</dc:source>
      </cc:Work>
    </rdf:RDF>
  </metadata>
  <g
     id="g13540"
     transform="translate(104.61112,35.450792)">
    <g
       id="g856"
       transform="matrix(1,0,0,1.375,336,192)">
      <path
         style="fill:#b40000"
         d="M 0,16 A 16,16 0 0 1 16,0 h 224 a 16,16 0 0 1 16,16 v 224 a 16,16 0 0 1 -16,16 H 16 A 16,16 0 0 1 0,240 Z"
         id="path846" />
      <path
         style="fill:#ffffff"
         d="M 64,80 A 16,16 0 0 1 80,64 h 128 a 16,16 0 0 1 16,16 v 128 a 16,16 0 0 1 -16,16 H 192 V 112 A 16,16 0 0 0 176,96 h -64 a 16,16 0 0 0 -16,16 v 16 h 64 v 16 a 16,16 0 0 1 -4.686,11.314 l -80,80 -11.313709,-11.31371 a 16,16 0 0 1 0,-22.627 L 105.37259,160 H 80 A 16,16 0 0 1 64,144 Z"
         id="path848" />
      <path
         style="fill:#000000"
         d="M 32,48 A 16,16 0 0 1 48,32 h 128 a 16,16 0 0 1 16,16 V 64 H 80 A 16,16 0 0 0 64,80 v 64 a 16,16 0 0 0 16,16 h 64 a 16,16 0 0 0 16,-16 V 128 H 96 v -16 a 16,16 0 0 1 16,-16 h 64 a 16,16 0 0 1 16,16 v 64 a 16,16 0 0 1 -16,16 H 48 A 16,16 0 0 1 32,176 Z"
         id="path850" />
      <path
         style="fill:#000000"
         d="m 0,224 h 256 v 16 a 16,16 0 0 1 -16,16 H 16 A 16,16 0 0 1 0,240 Z"
         id="path852" />
      <path
         style="fill:#ffffff"
         d="m 245.67967,249.8 -4.396,-6.3 c 2.548,-1.092 4.032,-3.248 4.032,-6.188 0,-4.396 -3.276,-7.112 -8.512,-7.112 h -8.484 v 19.6 h 4.536 v -5.46 h 3.948 0.224 l 3.78,5.46 z m -4.956,-12.488 c 0,2.128 -1.4,3.416 -4.172,3.416 h -3.696 v -6.832 h 3.696 c 2.772,0 4.172,1.26 4.172,3.416 z m -29.01232,8.848 v -4.536 h 9.1 v -3.528 h -9.1 v -4.256 h 10.304 v -3.64 h -14.812 v 19.6 h 15.176 v -3.64 z m -20.08028,3.64 h 4.536 v -15.904 h 6.272 V 230.2 h -17.08 v 3.696 h 6.272 z m -19.91221,0 h 4.536 v -15.904 h 6.272 V 230.2 h -17.08 v 3.696 h 6.272 z m -15.57232,0 h 4.536 v -19.6 h -4.536 z m -5.54829,0 -4.396,-6.3 c 2.548,-1.092 4.032,-3.248 4.032,-6.188 0,-4.396 -3.276,-7.112 -8.512,-7.112 h -8.484 v 19.6 h 4.536 v -5.46 h 3.948 0.224 l 3.78,5.46 z m -4.956,-12.488 c 0,2.128 -1.4,3.416 -4.172,3.416 h -3.696 v -6.832 h 3.696 c 2.772,0 4.172,1.26 4.172,3.416 z m -28.06463,-3.472 v -3.64 h -14.812 v 19.6 h 4.536 v -7.14 h 9.072 v -3.64 h -9.072 v -5.18 z m -20.220328,0 v -3.64 h -14.812 v 19.6 h 4.536 v -7.14 h 9.072 v -3.64 h -9.072 v -5.18 z m -31.280327,16.296 c 6.16,0 10.724,-4.284 10.724,-10.136 0,-5.852 -4.564,-10.136 -10.724,-10.136 -6.188,0 -10.724,4.312 -10.724,10.136 0,5.824 4.536,10.136 10.724,10.136 z m 0,-3.864 c -3.5,0 -6.132,-2.548 -6.132,-6.272 0,-3.724 2.632,-6.272 6.132,-6.272 3.5,0 6.132,2.548 6.132,6.272 0,3.724 -2.632,6.272 -6.132,6.272 z M 39.976647,246.16 v -4.536 h 9.1 v -3.528 h -9.1 v -4.256 h 10.304 v -3.64 h -14.812 v 19.6 h 15.176 v -3.64 z m -15.180328,-0.728 c -1.148,0.616 -2.296,0.84 -3.528,0.84 -3.752,0 -6.356,-2.604 -6.356,-6.272 0,-3.724 2.604,-6.272 6.412,-6.272 1.988,0 3.64,0.7 5.068,2.212 l 2.912,-2.688 c -1.904,-2.212 -4.76,-3.388 -8.204,-3.388 -6.244,0 -10.78,4.228 -10.78,10.136 0,5.908 4.536,10.136 10.696,10.136 2.8,0 5.768,-0.868 7.924,-2.492 v -7.952 h -4.144 z"
         id="path854" />
    </g>
    <g
       id="g1025"
       transform="translate(-112.02094,240)">
      <path
         style="fill:#b40000;stroke-width:1.1726"
         d="m 736.02094,-26 a 16,22 0 0 1 16,-22 h 224 a 16,22 0 0 1 16,22 v 308 a 16,22 0 0 1 -16,22 h -224 a 16,22 0 0 1 -16,-22 z"
         id="path858" />
      <path
         style="fill:#ffffff"
         d="m 800.02094,80 a 16,16 0 0 1 16,-16 h 128 a 16,16 0 0 1 16,16 v 128 a 16,16 0 0 1 -16,16 h -16 V 112 a 16,16 0 0 0 -16,-16 h -64 a 16,16 0 0 0 -16,16 v 16 h 64 v 16 a 16,16 0 0 1 -4.686,11.314 l -80,80 -11.31371,-11.31371 a 16,16 0 0 1 0,-22.627 L 841.39353,160 h -25.37259 a 16,16 0 0 1 -16,-16 z"
         id="path860" />
      <path
         style="fill:#000000"
         d="m 768.02094,48 a 16,16 0 0 1 16,-16 h 128 a 16,16 0 0 1 16,16 v 16 h -112 a 16,16 0 0 0 -16,16 v 64 a 16,16 0 0 0 16,16 h 64 a 16,16 0 0 0 16,-16 v -16 h -64 v -16 a 16,16 0 0 1 16,-16 h 64 a 16,16 0 0 1 16,16 v 64 a 16,16 0 0 1 -16,16 h -128 a 16,16 0 0 1 -16,-16 z"
         id="path862" />
      <path
         style="fill:#000000;stroke-width:1.1726"
         d="m 736.02094,260 h 256 v 22 a 16,22 0 0 1 -16,22 h -224 a 16,22 0 0 1 -16,-22 z"
         id="path864" />
      <path
         style="fill:#ffffff"
         d="m 981.70061,291.8 -4.396,-6.3 c 2.548,-1.092 4.032,-3.248 4.032,-6.188 0,-4.396 -3.276,-7.112 -8.512,-7.112 h -8.484 v 19.6 h 4.536 v -5.46 h 3.948 0.224 l 3.78,5.46 z m -4.956,-12.488 c 0,2.128 -1.4,3.416 -4.172,3.416 h -3.696 v -6.832 h 3.696 c 2.772,0 4.172,1.26 4.172,3.416 z m -29.01232,8.848 v -4.536 h 9.1 v -3.528 h -9.1 v -4.256 h 10.304 v -3.64 h -14.812 v 19.6 h 15.176 v -3.64 z m -20.08028,3.64 h 4.536 v -15.904 h 6.272 V 272.2 h -17.08 v 3.696 h 6.272 z m -19.91221,0 h 4.536 v -15.904 h 6.272 V 272.2 h -17.08 v 3.696 h 6.272 z m -15.57232,0 h 4.536 v -19.6 h -4.536 z m -5.54829,0 -4.396,-6.3 c 2.548,-1.092 4.032,-3.248 4.032,-6.188 0,-4.396 -3.276,-7.112 -8.512,-7.112 h -8.484 v 19.6 h 4.536 v -5.46 h 3.948 0.224 l 3.78,5.46 z m -4.956,-12.488 c 0,2.128 -1.4,3.416 -4.172,3.416 h -3.696 v -6.832 h 3.696 c 2.772,0 4.172,1.26 4.172,3.416 z m -28.06463,-3.472 v -3.64 h -14.812 v 19.6 h 4.536 v -7.14 h 9.072 v -3.64 h -9.072 v -5.18 z m -20.22033,0 v -3.64 h -14.812 v 19.6 h 4.536 v -7.14 h 9.072 v -3.64 h -9.072 v -5.18 z m -31.28032,16.296 c 6.16,0 10.724,-4.284 10.724,-10.136 0,-5.852 -4.564,-10.136 -10.724,-10.136 -6.188,0 -10.724,4.312 -10.724,10.136 0,5.824 4.536,10.136 10.724,10.136 z m 0,-3.864 c -3.5,0 -6.132,-2.548 -6.132,-6.272 0,-3.724 2.632,-6.272 6.132,-6.272 3.5,0 6.132,2.548 6.132,6.272 0,3.724 -2.632,6.272 -6.132,6.272 z m -26.10032,-0.112 v -4.536 h 9.1 v -3.528 h -9.1 v -4.256 h 10.304 v -3.64 h -14.812 v 19.6 h 15.176 v -3.64 z m -15.18033,-0.728 c -1.148,0.616 -2.296,0.84 -3.528,0.84 -3.752,0 -6.356,-2.604 -6.356,-6.272 0,-3.724 2.604,-6.272 6.412,-6.272 1.988,0 3.64,0.7 5.068,2.212 l 2.912,-2.688 c -1.904,-2.212 -4.76,-3.388 -8.204,-3.388 -6.244,0 -10.78,4.228 -10.78,10.136 0,5.908 4.536,10.136 10.696,10.136 2.8,0 5.768,-0.868 7.924,-2.492 v -7.952 h -4.144 z"
         id="path866" />
    </g>
  </g>
  <g
     id="g1040"
     transform="translate(104.61112,35.450792)">
    <g
       id="g844"
       transform="matrix(1.375,0,0,1,-48,0)">
      <path
         style="fill:#b40000"
         d="M 0,16 A 16,16 0 0 1 16,0 h 224 a 16,16 0 0 1 16,16 v 224 a 16,16 0 0 1 -16,16 H 16 A 16,16 0 0 1 0,240 Z"
         id="path6" />
      <path
         style="fill:#ffffff"
         d="M 64,80 A 16,16 0 0 1 80,64 h 128 a 16,16 0 0 1 16,16 v 128 a 16,16 0 0 1 -16,16 H 192 V 112 A 16,16 0 0 0 176,96 h -64 a 16,16 0 0 0 -16,16 v 16 h 64 v 16 a 16,16 0 0 1 -4.686,11.314 l -80,80 -11.313709,-11.31371 a 16,16 0 0 1 0,-22.627 L 105.37259,160 H 80 A 16,16 0 0 1 64,144 Z"
         id="path8" />
      <path
         style="fill:#000000"
         d="M 32,48 A 16,16 0 0 1 48,32 h 128 a 16,16 0 0 1 16,16 V 64 H 80 A 16,16 0 0 0 64,80 v 64 a 16,16 0 0 0 16,16 h 64 a 16,16 0 0 0 16,-16 V 128 H 96 v -16 a 16,16 0 0 1 16,-16 h 64 a 16,16 0 0 1 16,16 v 64 a 16,16 0 0 1 -16,16 H 48 A 16,16 0 0 1 32,176 Z"
         id="path10" />
      <path
         style="fill:#000000"
         d="m 0,224 h 256 v 16 a 16,16 0 0 1 -16,16 H 16 A 16,16 0 0 1 0,240 Z"
         id="path12" />
      <path
         style="fill:#ffffff"
         d="m 245.67967,249.8 -4.396,-6.3 c 2.548,-1.092 4.032,-3.248 4.032,-6.188 0,-4.396 -3.276,-7.112 -8.512,-7.112 h -8.484 v 19.6 h 4.536 v -5.46 h 3.948 0.224 l 3.78,5.46 z m -4.956,-12.488 c 0,2.128 -1.4,3.416 -4.172,3.416 h -3.696 v -6.832 h 3.696 c 2.772,0 4.172,1.26 4.172,3.416 z m -29.01232,8.848 v -4.536 h 9.1 v -3.528 h -9.1 v -4.256 h 10.304 v -3.64 h -14.812 v 19.6 h 15.176 v -3.64 z m -20.08028,3.64 h 4.536 v -15.904 h 6.272 V 230.2 h -17.08 v 3.696 h 6.272 z m -19.91221,0 h 4.536 v -15.904 h 6.272 V 230.2 h -17.08 v 3.696 h 6.272 z m -15.57232,0 h 4.536 v -19.6 h -4.536 z m -5.54829,0 -4.396,-6.3 c 2.548,-1.092 4.032,-3.248 4.032,-6.188 0,-4.396 -3.276,-7.112 -8.512,-7.112 h -8.484 v 19.6 h 4.536 v -5.46 h 3.948 0.224 l 3.78,5.46 z m -4.956,-12.488 c 0,2.128 -1.4,3.416 -4.172,3.416 h -3.696 v -6.832 h 3.696 c 2.772,0 4.172,1.26 4.172,3.416 z m -28.06463,-3.472 v -3.64 h -14.812 v 19.6 h 4.536 v -7.14 h 9.072 v -3.64 h -9.072 v -5.18 z m -20.220328,0 v -3.64 h -14.812 v 19.6 h 4.536 v -7.14 h 9.072 v -3.64 h -9.072 v -5.18 z m -31.280327,16.296 c 6.16,0 10.724,-4.284 10.724,-10.136 0,-5.852 -4.564,-10.136 -10.724,-10.136 -6.188,0 -10.724,4.312 -10.724,10.136 0,5.824 4.536,10.136 10.724,10.136 z m 0,-3.864 c -3.5,0 -6.132,-2.548 -6.132,-6.272 0,-3.724 2.632,-6.272 6.132,-6.272 3.5,0 6.132,2.548 6.132,6.272 0,3.724 -2.632,6.272 -6.132,6.272 z M 39.976647,246.16 v -4.536 h 9.1 v -3.528 h -9.1 v -4.256 h 10.304 v -3.64 h -14.812 v 19.6 h 15.176 v -3.64 z m -15.180328,-0.728 c -1.148,0.616 -2.296,0.84 -3.528,0.84 -3.752,0 -6.356,-2.604 -6.356,-6.272 0,-3.724 2.604,-6.272 6.412,-6.272 1.988,0 3.64,0.7 5.068,2.212 l 2.912,-2.688 c -1.904,-2.212 -4.76,-3.388 -8.204,-3.388 -6.244,0 -10.78,4.228 -10.78,10.136 0,5.908 4.536,10.136 10.696,10.136 2.8,0 5.768,-0.868 7.924,-2.492 v -7.952 h -4.144 z"
         id="path14" />
    </g>
    <g
       id="g912"
       transform="translate(1128.8636,410.83641)">
      <g
         id="g1018">
        <path
           style="fill:#b40000;stroke-width:1.1726"
           d="m -1176.8636,-106.83642 a 22.000001,16.000001 0 0 1 22,-15.99999 h 307.99999 a 22.000001,16.000001 0 0 1 22.00001,15.99999 v 224 a 22.000001,16.000001 0 0 1 -22.00001,16.00001 h -307.99999 a 22.000001,16.000001 0 0 1 -22,-16.00001 z"
           id="path902" />
        <path
           style="fill:#ffffff"
           d="m -1112.8636,-42.836415 a 16,16 0 0 1 16,-16 h 127.99999 a 16,16 0 0 1 16,16 v 128 a 16,16 0 0 1 -16,15.999995 h -16 V -10.836415 a 16,16 0 0 0 -15.99999,-16 h -64 a 16,16 0 0 0 -16,16 V 5.1635846 h 64 V 21.163585 a 16,16 0 0 1 -4.686,11.314 l -80,79.999995 -11.3137,-11.31371 a 16,16 0 0 1 0,-22.626995 l 41.3723,-41.37329 h -25.3726 a 16,16 0 0 1 -16,-16 z"
           id="path904" />
        <path
           style="fill:#000000"
           d="m -1144.8636,-74.836415 a 16,16 0 0 1 16,-16 h 128 a 16,16 0 0 1 15.99999,16 v 16 h -111.99999 a 16,16 0 0 0 -16,16 v 64 a 16,16 0 0 0 16,16 h 64 a 16,16 0 0 0 16,-16 V 5.1635846 h -64 V -10.836415 a 16,16 0 0 1 16,-16 h 64 a 16,16 0 0 1 15.99999,16 v 64 a 16,16 0 0 1 -15.99999,16 h -128 a 16,16 0 0 1 -16,-16 z"
           id="path906" />
        <path
           style="fill:#000000;stroke-width:1.1726"
           d="m -1176.8636,101.16358 h 352 v 16 a 22.000001,16.000001 0 0 1 -22.00001,16.00001 h -307.99999 a 22.000001,16.000001 0 0 1 -22,-16.00001 z"
           id="path908" />
        <path
           style="fill:#ffffff"
           d="m -931.18394,126.96358 -4.396,-6.3 c 2.548,-1.092 4.032,-3.248 4.032,-6.188 0,-4.396 -3.276,-7.112 -8.512,-7.112 h -8.484 v 19.6 h 4.536 v -5.46 h 3.948 0.224 l 3.78,5.46 z m -4.956,-12.488 c 0,2.128 -1.4,3.416 -4.172,3.416 h -3.696 v -6.832 h 3.696 c 2.772,0 4.172,1.26 4.172,3.416 z m -29.01232,8.848 v -4.536 h 9.1 v -3.528 h -9.1 v -4.256 h 10.304 v -3.64 h -14.812 v 19.6 h 15.176 v -3.64 z m -20.08028,3.64 h 4.536 v -15.904 h 6.272 v -3.696 h -17.08 v 3.696 h 6.272 z m -19.91226,0 h 4.536 v -15.904 h 6.27205 v -3.696 h -17.08005 v 3.696 h 6.272 z m -15.5723,0 h 4.536 v -19.6 h -4.536 z m -5.5483,0 -4.396,-6.3 c 2.548,-1.092 4.032,-3.248 4.032,-6.188 0,-4.396 -3.276,-7.112 -8.512,-7.112 h -8.484 v 19.6 h 4.536 v -5.46 h 3.948 0.224 l 3.78,5.46 z m -4.956,-12.488 c 0,2.128 -1.4,3.416 -4.172,3.416 h -3.696 v -6.832 h 3.696 c 2.772,0 4.172,1.26 4.172,3.416 z m -28.0646,-3.472 v -3.64 h -14.812 v 19.6 h 4.536 v -7.14 h 9.072 v -3.64 h -9.072 v -5.18 z m -20.2203,0 v -3.64 h -14.812 v 19.6 h 4.536 v -7.14 h 9.072 v -3.64 h -9.072 v -5.18 z m -31.2803,16.296 c 6.16,0 10.724,-4.284 10.724,-10.136 0,-5.852 -4.564,-10.136 -10.724,-10.136 -6.188,0 -10.724,4.312 -10.724,10.136 0,5.824 4.536,10.136 10.724,10.136 z m 0,-3.864 c -3.5,0 -6.132,-2.548 -6.132,-6.272 0,-3.724 2.632,-6.272 6.132,-6.272 3.5,0 6.132,2.548 6.132,6.272 0,3.724 -2.632,6.272 -6.132,6.272 z m -26.1004,-0.112 v -4.536 h 9.1 v -3.528 h -9.1 v -4.256 h 10.304 v -3.64 h -14.812 v 19.6 h 15.176 v -3.64 z m -15.1803,-0.728 c -1.148,0.616 -2.296,0.84 -3.528,0.84 -3.752,0 -6.356,-2.604 -6.356,-6.272 0,-3.724 2.604,-6.272 6.412,-6.272 1.988,0 3.64,0.7 5.068,2.212 l 2.912,-2.688 c -1.904,-2.212 -4.76,-3.388 -8.204,-3.388 -6.244,0 -10.78,4.228 -10.78,10.136 0,5.908 4.536,10.136 10.696,10.136 2.8,0 5.768,-0.868 7.924,-2.492 v -7.952 h -4.144 z"
           id="path910" />
      </g>
    </g>
  </g>
  <g
     aria-label="BAD!"
     id="text3904"
     style="font-weight:bold;font-size:151.181px;line-height:250px;font-family:Montserrat;-inkscape-font-specification:'Montserrat Bold';stroke-width:8;stroke-linejoin:round">
    <path
       d="m 600.2083,128.72953 c 8.61732,-4.53543 14.05984,-12.6992 14.05984,-23.28187 0,-16.478732 -13.60629,-27.514945 -40.06297,-27.514945 h -51.7039 V 183.75941 h 54.72752 c 27.81731,0 42.33068,-10.58267 42.33068,-28.87557 0,-13.30392 -7.55905,-22.37478 -19.35117,-26.15431 z M 571.18155,96.376797 c 11.9433,0 18.44408,4.081883 18.44408,12.396843 0,8.31495 -6.50078,12.54802 -18.44408,12.54802 H 546.84141 V 96.376797 Z m 4.23307,68.938533 h -28.57321 v -26.15431 h 28.57321 c 12.6992,0 19.50235,4.23307 19.50235,13.15275 0,9.07086 -6.80315,13.00156 -19.50235,13.00156 z"
       id="path15328" />
    <path
       d="m 717.22231,183.75941 h 25.70077 L 695.60342,77.932715 H 671.41446 L 624.24599,183.75941 h 25.09605 l 9.37322,-22.67715 h 49.13382 z M 666.57667,142.487 683.35776,101.97049 700.13885,142.487 Z"
       id="path15330" />
    <path
       d="m 753.95913,183.75941 h 48.07555 c 34.62045,0 58.35587,-20.86297 58.35587,-52.91335 0,-32.050367 -23.73542,-52.913345 -58.35587,-52.913345 h -48.07555 z m 24.49132,-20.10707 V 98.039788 h 22.37479 c 21.01415,0 34.77163,12.548022 34.77163,32.806272 0,20.25826 -13.75748,32.80628 -34.77163,32.80628 z"
       id="path15332" />
    <path
       d="m 878.83437,147.02243 h 18.74644 l 4.68661,-69.089715 h -28.11966 z m 9.37322,37.94643 c 8.46614,0 14.51338,-6.19842 14.51338,-13.75747 0,-7.71023 -6.04724,-13.45511 -14.51338,-13.45511 -8.46613,0 -14.51337,5.74488 -14.51337,13.45511 0,7.55905 6.04724,13.75747 14.51337,13.75747 z"
       id="path15334" />
  </g>
  <path
     id="path14040"
     style="fill:none;stroke:#ff00fc;stroke-width:8;stroke-linecap:butt;stroke-linejoin:miter;stroke-miterlimit:4;stroke-dasharray:none;stroke-opacity:1"
     d="M 2.022878,3.4507919 1039.1994,611.45079 m -1037.176522,0 L 1039.1994,3.4507919" />
</svg>
