<?xml version="1.0" encoding="UTF-8" standalone="no"?>
<svg viewBox="0 0 160 160" version="1.1" xmlns="http://www.w3.org/2000/svg"
xmlns:rdf="http://www.w3.org/1999/02/22-rdf-syntax-ns#"
xmlns:cc="http://creativecommons.org/ns#"
xmlns:dc="http://purl.org/dc/elements/1.1/">
<title>GR Logo's G only.</title>
<desc>G shape.</desc>
<path style="fill:#000000" d="M0,16a16 16 0 0 1 16-16h128a16 16 0 0 1 16 16v16h-112a16 16 0 0 0-16 16v64a16 16 0 0 0 16 16h64a16 16 0 0 0 16-16v-16h-64v-16a16 16 0 0 1 16-16h64a16 16 0 0 1 16 16v64a16 16 0 0 1-16 16h-128a16 16 0 0 1-16-16Z"/>
<metadata>
  <rdf:RDF>
    <cc:Work rdf:about="">
      <dc:title>GR Logo's G only.</dc:title>
      <dc:date>2021-08-04</dc:date>
      <dc:creator>
        <cc:Agent>
          <dc:title>Geoff Ritter</dc:title>
        </cc:Agent>
      </dc:creator>
      <dc:rights>
        <cc:Agent>
          <dc:title>© 2005 Geoff Ritter, All rights reserved.</dc:title>
        </cc:Agent>
      </dc:rights>
      <dc:description>G shape.</dc:description>
      <dc:publisher>
        <cc:Agent>
          <dc:title>Geoff Ritter</dc:title>
        </cc:Agent>
      </dc:publisher>
      <dc:subject>
        <rdf:Bag>
          <rdf:li>logo</rdf:li>
          <rdf:li>Geoff Ritter</rdf:li>
        </rdf:Bag>
      </dc:subject>
      <dc:relation>https://geoffritter.com/logo/styleguide.html</dc:relation>
      <dc:source>https://geoffritter.com/logo/gr-logo.svg</dc:source>
    </cc:Work>
  </rdf:RDF>
</metadata>
</svg>