<?xml version="1.0" encoding="UTF-8" standalone="no"?>
<svg viewBox="0 0 200 214.62772" version="1.1" xmlns="http://www.w3.org/2000/svg"
   xmlns:rdf="http://www.w3.org/1999/02/22-rdf-syntax-ns#"
   xmlns:cc="http://creativecommons.org/ns#"
   xmlns:dc="http://purl.org/dc/elements/1.1/">
  <title>GR Logo with just GR</title>
  <desc>Geoff Ritter's personal logo containing a squared G with rounded corners and an intertwined reversed R.</desc>
  <path style="fill:#000000;stroke:#000000;stroke-width:16" d="M 32,48 A 16,16 0 0 1 48,32 h 128 a 16,16 0 0 1 16,16 v 128 a 16,16 0 0 1 -16,16 H 160 V 80 A 16,16 0 0 0 144,64 H 80 A 16,16 0 0 0 64,80 v 16 h 64 v 16 a 16,16 0 0 1 -4.686,11.314 l -80,80 -11.313709,-11.31371 a 16,16 0 0 1 0,-22.627 L 73.37259,128 H 48 A 16,16 0 0 1 32,112 Z"/>
  <path style="fill:#ffffff" d="M 32,48 A 16,16 0 0 1 48,32 h 128 a 16,16 0 0 1 16,16 v 128 a 16,16 0 0 1 -16,16 H 160 V 80 A 16,16 0 0 0 144,64 H 80 A 16,16 0 0 0 64,80 v 16 h 64 v 16 a 16,16 0 0 1 -4.686,11.314 l -80,80 -11.313709,-11.31371 a 16,16 0 0 1 0,-22.627 L 73.37259,128 H 48 A 16,16 0 0 1 32,112 Z"/>
  <path style="fill:#000000" d="M 0,16 A 16,16 0 0 1 16,0 h 128 a 16,16 0 0 1 16,16 V 32 H 48 A 16,16 0 0 0 32,48 v 64 a 16,16 0 0 0 16,16 h 64 a 16,16 0 0 0 16,-16 V 96 H 64 V 80 A 16,16 0 0 1 80,64 h 64 a 16,16 0 0 1 16,16 v 64 a 16,16 0 0 1 -16,16 H 16 A 16,16 0 0 1 0,144 Z"/>
  <metadata>
    <rdf:RDF>
      <cc:Work
         rdf:about="">
        <dc:title>GR Logo with just GR</dc:title>
        <dc:date>2021-08-04</dc:date>
        <dc:creator>
          <cc:Agent>
            <dc:title>Geoff Ritter</dc:title>
          </cc:Agent>
        </dc:creator>
        <dc:rights>
          <cc:Agent>
            <dc:title>© 2005 Geoff Ritter, All rights reserved.</dc:title>
          </cc:Agent>
        </dc:rights>
        <dc:description>Geoff Ritter's personal logo containing a squared G with rounded corners and an intertwined reversed R.</dc:description>
        <dc:publisher>
          <cc:Agent>
            <dc:title>Geoff Ritter</dc:title>
          </cc:Agent>
        </dc:publisher>
        <dc:subject>
          <rdf:Bag>
            <rdf:li>logo</rdf:li>
            <rdf:li>Geoff Ritter</rdf:li>
          </rdf:Bag>
        </dc:subject>
        <dc:relation>https://geoffritter.com/logo/styleguide.html</dc:relation>
        <dc:source>https://geoffritter.com/logo/gr-logo.svg</dc:source>
      </cc:Work>
    </rdf:RDF>
  </metadata>
</svg>
