<?xml version="1.0" encoding="UTF-8" standalone="no"?>
<svg
   id="gr-logo-warped"
   viewBox="0 0 1041.2223 614.90161"
   version="1.1"
   sodipodi:docname="gr-logo-warped.svg"
   width="1041.2223"
   height="614.90161"
   inkscape:version="1.1 (c68e22c387, 2021-05-23)"
   xmlns:inkscape="http://www.inkscape.org/namespaces/inkscape"
   xmlns:sodipodi="http://sodipodi.sourceforge.net/DTD/sodipodi-0.dtd"
   xmlns="http://www.w3.org/2000/svg"
   xmlns:svg="http://www.w3.org/2000/svg"
   xmlns:rdf="http://www.w3.org/1999/02/22-rdf-syntax-ns#"
   xmlns:cc="http://creativecommons.org/ns#"
   xmlns:dc="http://purl.org/dc/elements/1.1/">
  <defs
     id="defs" />
  <sodipodi:namedview
     id="namedview"
     pagecolor="#ffffff"
     bordercolor="#666666"
     borderopacity="1.0"
     inkscape:pageshadow="2"
     inkscape:pageopacity="0.0"
     inkscape:pagecheckerboard="0"
     showgrid="false"
     inkscape:object-paths="true"
     inkscape:snap-intersection-paths="true"
     inkscape:snap-bbox="true"
     inkscape:bbox-paths="true"
     inkscape:bbox-nodes="true"
     showguides="true"
     inkscape:guide-bbox="true"
     fit-margin-top="0"
     fit-margin-left="0"
     fit-margin-right="0"
     fit-margin-bottom="0"
     inkscape:zoom="1"
     inkscape:cx="520.5"
     inkscape:cy="307.5"
     inkscape:window-width="3440"
     inkscape:window-height="1371"
     inkscape:window-x="0"
     inkscape:window-y="32"
     inkscape:window-maximized="1"
     inkscape:current-layer="vertical" />
  <title
     id="title">GR Logo</title>
  <desc
     id="desc">Geoff Ritter's personal logo showing examples of bad resizing and warping the logo.</desc>
  <metadata
     id="metadata">
    <rdf:RDF>
      <cc:Work
         rdf:about="">
        <dc:title>GR Logo</dc:title>
        <dc:date>2021-08-04</dc:date>
        <dc:creator>
          <cc:Agent>
            <dc:title>Geoff Ritter</dc:title>
          </cc:Agent>
        </dc:creator>
        <dc:rights>
          <cc:Agent>
            <dc:title>© 2005 Geoff Ritter, All rights reserved.</dc:title>
          </cc:Agent>
        </dc:rights>
        <dc:description>Geoff Ritter's personal logo showing examples of bad resizing and warping the logo.</dc:description>
        <dc:publisher>
          <cc:Agent>
            <dc:title>Geoff Ritter</dc:title>
          </cc:Agent>
        </dc:publisher>
        <dc:subject>
          <rdf:Bag>
            <rdf:li>logo</rdf:li>
            <rdf:li>Geoff Ritter</rdf:li>
          </rdf:Bag>
        </dc:subject>
        <dc:relation>https://geoffritter.com/logo/styleguide.html</dc:relation>
        <dc:source>https://geoffritter.com/logo/gr-logo.svg</dc:source>
      </cc:Work>
    </rdf:RDF>
  </metadata>
  <g
     id="vertical">
    <g
       id="vertical-warping">
      <path
         id="path101"
         style="fill:#b40000"
         d="m 440.61112,249.45079 a 16,22 0 0 1 16,-22 h 224 a 16,22 0 0 1 16,22 v 308 a 16,22 0 0 1 -16,22 h -224 a 16,22 0 0 1 -16,-22 z" />
      <path
         id="path102"
         style="fill:#ffffff"
         d="m 504.61112,337.45079 a 16,22 0 0 1 16,-22 h 128 a 16,22 0 0 1 16,22 v 176 a 16,22 0 0 1 -16,22 h -16 v -154 a 16,22 0 0 0 -16,-22 h -64 a 16,22 0 0 0 -16,22 v 22 h 64 v 22 a 16,22 0 0 1 -4.686,15.55675 l -80,110 -11.31371,-15.55635 a 16,22 0 0 1 0,-31.11213 l 41.3723,-56.88827 h -25.37259 a 16,22 0 0 1 -16,-22 z" />
      <path
         id="path103"
         style="fill:#000000"
         d="m 472.61112,293.45079 a 16,22 0 0 1 16,-22 h 128 a 16,22 0 0 1 16,22 v 22 h -112 a 16,22 0 0 0 -16,22 v 88 a 16,22 0 0 0 16,22 h 64 a 16,22 0 0 0 16,-22 v -22 h -64 v -22 a 16,22 0 0 1 16,-22 h 64 a 16,22 0 0 1 16,22 v 88 a 16,22 0 0 1 -16,22 h -128 a 16,22 0 0 1 -16,-22 z" />
      <path
         id="path104"
         style="fill:#000000"
         d="m 440.61112,535.45079 h 256 v 22 a 16,22 0 0 1 -16,22 h -224 a 16,22 0 0 1 -16,-22 z" />
      <path
         id="path105"
         style="fill:#ffffff"
         d="m 686.29079,570.92579 -4.396,-8.6625 c 2.548,-1.5015 4.032,-4.466 4.032,-8.5085 0,-6.0445 -3.276,-9.779 -8.512,-9.779 h -8.484 v 26.95 h 4.536 v -7.5075 h 3.948 0.224 l 3.78,7.5075 z m -4.956,-17.171 c 0,2.926 -1.4,4.697 -4.172,4.697 h -3.696 v -9.394 h 3.696 c 2.772,0 4.172,1.7325 4.172,4.697 z m -29.01232,12.166 v -6.237 h 9.1 v -4.851 h -9.1 v -5.852 h 10.304 v -5.005 h -14.812 v 26.95 h 15.176 v -5.005 z m -20.08028,5.005 h 4.536 v -21.868 h 6.272 v -5.082 h -17.08 v 5.082 h 6.272 z m -19.91221,0 h 4.536 v -21.868 h 6.272 v -5.082 h -17.08 v 5.082 h 6.272 z m -15.57232,0 h 4.536 v -26.95 h -4.536 z m -5.54829,0 -4.396,-8.6625 c 2.548,-1.5015 4.032,-4.466 4.032,-8.5085 0,-6.0445 -3.276,-9.779 -8.512,-9.779 h -8.484 v 26.95 h 4.536 v -7.5075 h 3.948 0.224 l 3.78,7.5075 z m -4.956,-17.171 c 0,2.926 -1.4,4.697 -4.172,4.697 h -3.696 v -9.394 h 3.696 c 2.772,0 4.172,1.7325 4.172,4.697 z m -28.06463,-4.774 v -5.005 h -14.812 v 26.95 h 4.536 v -9.8175 h 9.072 v -5.005 h -9.072 v -7.1225 z m -20.22033,0 v -5.005 h -14.812 v 26.95 h 4.536 v -9.8175 h 9.072 v -5.005 h -9.072 v -7.1225 z m -31.28032,22.407 c 6.16,0 10.724,-5.8905 10.724,-13.937 0,-8.0465 -4.564,-13.937 -10.724,-13.937 -6.188,0 -10.724,5.929 -10.724,13.937 0,8.008 4.536,13.937 10.724,13.937 z m 0,-5.313 c -3.5,0 -6.132,-3.5035 -6.132,-8.624 0,-5.1205 2.632,-8.624 6.132,-8.624 3.5,0 6.132,3.5035 6.132,8.624 0,5.1205 -2.632,8.624 -6.132,8.624 z m -26.10032,-0.154 v -6.237 h 9.1 v -4.851 h -9.1 v -5.852 h 10.304 v -5.005 h -14.812 v 26.95 h 15.176 v -5.005 z m -15.18033,-1.001 c -1.148,0.847 -2.296,1.155 -3.528,1.155 -3.752,0 -6.356,-3.5805 -6.356,-8.624 0,-5.1205 2.604,-8.624 6.412,-8.624 1.988,0 3.64,0.9625 5.068,3.0415 l 2.912,-3.696 c -1.904,-3.0415 -4.76,-4.6585 -8.204,-4.6585 -6.244,0 -10.78,5.8135 -10.78,13.937 0,8.1235 4.536,13.937 10.696,13.937 2.8,0 5.768,-1.1935 7.924,-3.4265 v -10.934 h -4.144 z" />
    </g>
    <g
       id="vertical-bad-background">
      <path
         id="path201"
         style="fill:#b40000"
         d="m 728.61112,249.45079 a 16,22 0 0 1 16,-22 h 224 a 16,22 0 0 1 16,22 v 308 a 16,22 0 0 1 -16,22 h -224 a 16,22 0 0 1 -16,-22 z" />
      <path
         id="path202"
         style="fill:#ffffff"
         d="m 792.61112,355.45079 a 16,16 0 0 1 16,-16 h 128 a 16,16 0 0 1 16,16 v 128 a 16,16 0 0 1 -16,16 h -16 v -112 a 16,16 0 0 0 -16,-16 h -64 a 16,16 0 0 0 -16,16 v 16 h 64 v 16 a 16,16 0 0 1 -4.686,11.314 l -80,80 -11.31371,-11.31371 a 16,16 0 0 1 0,-22.627 l 41.3723,-41.37329 h -25.37259 a 16,16 0 0 1 -16,-16 z" />
      <path
         id="path203"
         style="fill:#000000"
         d="m 760.61112,323.45079 a 16,16 0 0 1 16,-16 h 128 a 16,16 0 0 1 16,16 v 16 h -112 a 16,16 0 0 0 -16,16 v 64 a 16,16 0 0 0 16,16 h 64 a 16,16 0 0 0 16,-16 v -16 h -64 v -16 a 16,16 0 0 1 16,-16 h 64 a 16,16 0 0 1 16,16 v 64 a 16,16 0 0 1 -16,16 h -128 a 16,16 0 0 1 -16,-16 z" />
      <path
         id="path204"
         style="fill:#000000"
         d="m 728.61112,535.45079 h 256 v 22 a 16,22 0 0 1 -16,22 h -224 a 16,22 0 0 1 -16,-22 z" />
      <path
         id="path205"
         style="fill:#ffffff"
         d="m 974.29079,567.25079 -4.396,-6.3 c 2.548,-1.092 4.032,-3.248 4.032,-6.188 0,-4.396 -3.276,-7.112 -8.512,-7.112 h -8.484 v 19.6 h 4.536 v -5.46 h 3.948 0.224 l 3.78,5.46 z m -4.956,-12.488 c 0,2.128 -1.4,3.416 -4.172,3.416 h -3.696 v -6.832 h 3.696 c 2.772,0 4.172,1.26 4.172,3.416 z m -29.01232,8.848 v -4.536 h 9.1 v -3.528 h -9.1 v -4.256 h 10.304 v -3.64 h -14.812 v 19.6 h 15.176 v -3.64 z m -20.08028,3.64 h 4.536 v -15.904 h 6.272 v -3.696 h -17.08 v 3.696 h 6.272 z m -19.91221,0 h 4.536 v -15.904 h 6.272 v -3.696 h -17.08 v 3.696 h 6.272 z m -15.57232,0 h 4.536 v -19.6 h -4.536 z m -5.54829,0 -4.396,-6.3 c 2.548,-1.092 4.032,-3.248 4.032,-6.188 0,-4.396 -3.276,-7.112 -8.512,-7.112 h -8.484 v 19.6 h 4.536 v -5.46 h 3.948 0.224 l 3.78,5.46 z m -4.956,-12.488 c 0,2.128 -1.4,3.416 -4.172,3.416 h -3.696 v -6.832 h 3.696 c 2.772,0 4.172,1.26 4.172,3.416 z m -28.06463,-3.472 v -3.64 h -14.812 v 19.6 h 4.536 v -7.14 h 9.072 v -3.64 h -9.072 v -5.18 z m -20.22033,0 v -3.64 h -14.812 v 19.6 h 4.536 v -7.14 h 9.072 v -3.64 h -9.072 v -5.18 z m -31.28032,16.296 c 6.16,0 10.724,-4.284 10.724,-10.136 0,-5.852 -4.564,-10.136 -10.724,-10.136 -6.188,0 -10.724,4.312 -10.724,10.136 0,5.824 4.536,10.136 10.724,10.136 z m 0,-3.864 c -3.5,0 -6.132,-2.548 -6.132,-6.272 0,-3.724 2.632,-6.272 6.132,-6.272 3.5,0 6.132,2.548 6.132,6.272 0,3.724 -2.632,6.272 -6.132,6.272 z m -26.10032,-0.112 v -4.536 h 9.1 v -3.528 h -9.1 v -4.256 h 10.304 v -3.64 h -14.812 v 19.6 h 15.176 v -3.64 z m -15.18033,-0.728 c -1.148,0.616 -2.296,0.84 -3.528,0.84 -3.752,0 -6.356,-2.604 -6.356,-6.272 0,-3.724 2.604,-6.272 6.412,-6.272 1.988,0 3.64,0.7 5.068,2.212 l 2.912,-2.688 c -1.904,-2.212 -4.76,-3.388 -8.204,-3.388 -6.244,0 -10.78,4.228 -10.78,10.136 0,5.908 4.536,10.136 10.696,10.136 2.8,0 5.768,-0.868 7.924,-2.492 v -7.952 h -4.144 z" />
    </g>
  </g>
  <g
     id="horizontal">
    <g
       id="horizontal-warping">
      <path
         id="path301"
         style="fill:#b40000;stroke-width:1.1726"
         d="m 56.61112,51.450792 a 22,16 0 0 1 22,-16 h 308 a 22,16 0 0 1 22,16 V 275.45079 a 22,16 0 0 1 -22,16 h -308 a 22,16 0 0 1 -22,-16 z" />
      <path
         id="path302"
         style="fill:#ffffff;stroke-width:1.1726"
         d="m 144.61112,115.45079 a 22,16 0 0 1 22,-15.999998 h 176 a 22,16 0 0 1 22,15.999998 v 128 a 22,16 0 0 1 -22,16 h -22 v -112 a 22,16 0 0 0 -22,-16 h -88 a 22,16 0 0 0 -22,16 v 16 h 88 v 16 a 22,16 0 0 1 -6.44325,11.314 l -110,80 -15.55635,-11.31371 a 22,16 0 0 1 0,-22.627 l 56.88691,-41.37329 h -34.88731 a 22,16 0 0 1 -22,-16 z" />
      <path
         id="path303"
         style="fill:#000000;stroke-width:1.1726"
         d="m 100.61112,83.450792 a 22,16 0 0 1 22,-16 h 176 a 22,16 0 0 1 22,16 v 16 h -154 a 22,16 0 0 0 -22,15.999998 v 64 a 22,16 0 0 0 22,16 h 88 a 22,16 0 0 0 22,-16 v -16 h -88 v -16 a 22,16 0 0 1 22,-16 h 88 a 22,16 0 0 1 22,16 v 64 a 22,16 0 0 1 -22,16 h -176 a 22,16 0 0 1 -22,-16 z" />
      <path
         id="path304"
         style="fill:#000000;stroke-width:1.1726"
         d="m 56.61112,259.45079 h 352 v 16 a 22,16 0 0 1 -22,16 h -308 a 22,16 0 0 1 -22,-16 z" />
      <path
         id="path305"
         style="fill:#ffffff;stroke-width:1.1726"
         d="m 394.42067,285.25079 -6.0445,-6.3 c 3.5035,-1.092 5.544,-3.248 5.544,-6.188 0,-4.396 -4.5045,-7.112 -11.704,-7.112 h -11.6655 v 19.6 h 6.237 v -5.46 h 5.4285 0.308 l 5.1975,5.46 z m -6.8145,-12.488 c 0,2.128 -1.925,3.416 -5.7365,3.416 h -5.082 v -6.832 h 5.082 c 3.8115,0 5.7365,1.26 5.7365,3.416 z m -39.89194,8.848 v -4.536 h 12.5125 v -3.528 h -12.5125 v -4.256 h 14.168 v -3.64 h -20.3665 v 19.6 h 20.867 v -3.64 z m -27.61039,3.64 h 6.237 v -15.904 h 8.624 v -3.696 h -23.485 v 3.696 h 8.624 z m -27.37929,0 h 6.237 v -15.904 h 8.624 v -3.696 h -23.485 v 3.696 h 8.624 z m -21.41194,0 h 6.237 v -19.6 h -6.237 z m -7.6289,0 -6.0445,-6.3 c 3.5035,-1.092 5.544,-3.248 5.544,-6.188 0,-4.396 -4.5045,-7.112 -11.704,-7.112 h -11.6655 v 19.6 h 6.237 v -5.46 h 5.4285 0.308 l 5.1975,5.46 z m -6.8145,-12.488 c 0,2.128 -1.925,3.416 -5.7365,3.416 h -5.082 v -6.832 h 5.082 c 3.8115,0 5.7365,1.26 5.7365,3.416 z m -38.58886,-3.472 v -3.64 h -20.3665 v 19.6 h 6.237 v -7.14 h 12.474 v -3.64 h -12.474 v -5.18 z m -27.80295,0 v -3.64 h -20.3665 v 19.6 h 6.237 v -7.14 h 12.474 v -3.64 h -12.474 v -5.18 z m -43.01045,16.296 c 8.47,0 14.7455,-4.284 14.7455,-10.136 0,-5.852 -6.2755,-10.136 -14.7455,-10.136 -8.5085,0 -14.7455,4.312 -14.7455,10.136 0,5.824 6.237,10.136 14.7455,10.136 z m 0,-3.864 c -4.8125,0 -8.4315,-2.548 -8.4315,-6.272 0,-3.724 3.619,-6.272 8.4315,-6.272 4.8125,0 8.4315,2.548 8.4315,6.272 0,3.724 -3.619,6.272 -8.4315,6.272 z m -35.88794,-0.112 v -4.536 h 12.5125 v -3.528 h -12.5125 v -4.256 h 14.168 v -3.64 h -20.3665 v 19.6 h 20.867 v -3.64 z m -20.872951,-0.728 c -1.5785,0.616 -3.157,0.84 -4.851,0.84 -5.159,0 -8.7395,-2.604 -8.7395,-6.272 0,-3.724 3.5805,-6.272 8.8165,-6.272 2.7335,0 5.005,0.7 6.9685,2.212 l 4.004,-2.688 c -2.618,-2.212 -6.545,-3.388 -11.2805,-3.388 -8.5855,0 -14.8225,4.228 -14.8225,10.136 0,5.908 6.237,10.136 14.707,10.136 3.85,0 7.931,-0.868 10.8955,-2.492 v -7.952 h -5.698 z" />
    </g>
    <g
       id="horizontal-bad-background">
      <path
         id="path401"
         style="fill:#b40000"
         d="m 56.6111,339.45078 a 22.000001,16.000001 0 0 1 22,-15.99999 h 307.99999 a 22.000001,16.000001 0 0 1 22.00001,15.99999 v 224 a 22.000001,16.000001 0 0 1 -22.00001,16.00001 H 78.6111 a 22.000001,16.000001 0 0 1 -22,-16.00001 z" />
      <path
         id="path402"
         style="fill:#ffffff"
         d="m 120.6111,403.45078 a 16,16 0 0 1 16,-16 h 127.99999 a 16,16 0 0 1 16,16 v 128 a 16,16 0 0 1 -16,16 h -16 v -112 a 16,16 0 0 0 -15.99999,-16 h -64 a 16,16 0 0 0 -16,16 v 16 h 64 v 16 a 16,16 0 0 1 -4.686,11.314 l -80,80 -11.3137,-11.31371 a 16,16 0 0 1 0,-22.627 l 41.3723,-41.37329 h -25.3726 a 16,16 0 0 1 -16,-16 z" />
      <path
         id="path403"
         style="fill:#000000"
         d="m 88.6111,371.45078 a 16,16 0 0 1 16,-16 h 128 a 16,16 0 0 1 15.99999,16 v 16 H 136.6111 a 16,16 0 0 0 -16,16 v 64 a 16,16 0 0 0 16,16 h 64 a 16,16 0 0 0 16,-16 v -16 h -64 v -16 a 16,16 0 0 1 16,-16 h 64 a 16,16 0 0 1 15.99999,16 v 64 a 16,16 0 0 1 -15.99999,16 h -128 a 16,16 0 0 1 -16,-16 z" />
      <path
         id="path404"
         style="fill:#000000"
         d="m 56.6111,547.45078 h 352 v 16 a 22.000001,16.000001 0 0 1 -22.00001,16.00001 H 78.6111 a 22.000001,16.000001 0 0 1 -22,-16.00001 z" />
      <path
         id="path405"
         style="fill:#ffffff"
         d="m 302.29076,573.25078 -4.396,-6.3 c 2.548,-1.092 4.032,-3.248 4.032,-6.188 0,-4.396 -3.276,-7.112 -8.512,-7.112 h -8.484 v 19.6 h 4.536 v -5.46 h 3.948 0.224 l 3.78,5.46 z m -4.956,-12.488 c 0,2.128 -1.4,3.416 -4.172,3.416 h -3.696 v -6.832 h 3.696 c 2.772,0 4.172,1.26 4.172,3.416 z m -29.01232,8.848 v -4.536 h 9.1 v -3.528 h -9.1 v -4.256 h 10.304 v -3.64 h -14.812 v 19.6 h 15.176 v -3.64 z m -20.08028,3.64 h 4.536 v -15.904 h 6.272 v -3.696 h -17.08 v 3.696 h 6.272 z m -19.91226,0 h 4.536 v -15.904 h 6.27205 v -3.696 H 222.0579 v 3.696 h 6.272 z m -15.5723,0 h 4.536 v -19.6 h -4.536 z m -5.5483,0 -4.396,-6.3 c 2.548,-1.092 4.032,-3.248 4.032,-6.188 0,-4.396 -3.276,-7.112 -8.512,-7.112 h -8.484 v 19.6 h 4.536 v -5.46 h 3.948 0.224 l 3.78,5.46 z m -4.956,-12.488 c 0,2.128 -1.4,3.416 -4.172,3.416 h -3.696 v -6.832 h 3.696 c 2.772,0 4.172,1.26 4.172,3.416 z m -28.0646,-3.472 v -3.64 h -14.812 v 19.6 h 4.536 v -7.14 h 9.072 v -3.64 h -9.072 v -5.18 z m -20.2203,0 v -3.64 h -14.812 v 19.6 h 4.536 v -7.14 h 9.072 v -3.64 h -9.072 v -5.18 z m -31.2803,16.296 c 6.16,0 10.724,-4.284 10.724,-10.136 0,-5.852 -4.564,-10.136 -10.724,-10.136 -6.188,0 -10.724,4.312 -10.724,10.136 0,5.824 4.536,10.136 10.724,10.136 z m 0,-3.864 c -3.5,0 -6.132,-2.548 -6.132,-6.272 0,-3.724 2.632,-6.272 6.132,-6.272 3.5,0 6.132,2.548 6.132,6.272 0,3.724 -2.632,6.272 -6.132,6.272 z m -26.1004,-0.112 v -4.536 h 9.1 v -3.528 h -9.1 v -4.256 h 10.304 v -3.64 h -14.812 v 19.6 h 15.176 v -3.64 z m -15.1803,-0.728 c -1.148,0.616 -2.296,0.84 -3.528,0.84 -3.752,0 -6.356,-2.604 -6.356,-6.272 0,-3.724 2.604,-6.272 6.412,-6.272 1.988,0 3.64,0.7 5.068,2.212 l 2.912,-2.688 c -1.904,-2.212 -4.76,-3.388 -8.204,-3.388 -6.244,0 -10.78,4.228 -10.78,10.136 0,5.908 4.536,10.136 10.696,10.136 2.8,0 5.768,-0.868 7.924,-2.492 v -7.952 h -4.144 z" />
    </g>
  </g>
  <path
     id="text"
     style="fill:#000000"
     d="m 878.83437,147.02243 h 18.74644 l 4.68661,-69.089715 h -28.11966 z m 9.37322,37.94643 c 8.46614,0 14.51338,-6.19842 14.51338,-13.75747 0,-7.71023 -6.04724,-13.45511 -14.51338,-13.45511 -8.46613,0 -14.51337,5.74488 -14.51337,13.45511 0,7.55905 6.04724,13.75747 14.51337,13.75747 z m -134.24846,-1.20945 h 48.07555 c 34.62045,0 58.35587,-20.86297 58.35587,-52.91335 0,-32.050367 -23.73542,-52.913345 -58.35587,-52.913345 h -48.07555 z m 24.49132,-20.10707 V 98.039788 h 22.37479 c 21.01415,0 34.77163,12.548022 34.77163,32.806272 0,20.25826 -13.75748,32.80628 -34.77163,32.80628 z m -61.22814,20.10707 h 25.70077 L 695.60342,77.932715 H 671.41446 L 624.24599,183.75941 h 25.09605 l 9.37322,-22.67715 h 49.13382 z M 666.57667,142.487 683.35776,101.97049 700.13885,142.487 Z M 600.2083,128.72953 c 8.61732,-4.53543 14.05984,-12.6992 14.05984,-23.28187 0,-16.478732 -13.60629,-27.514945 -40.06297,-27.514945 h -51.7039 V 183.75941 h 54.72752 c 27.81731,0 42.33068,-10.58267 42.33068,-28.87557 0,-13.30392 -7.55905,-22.37478 -19.35117,-26.15431 z M 571.18155,96.376797 c 11.9433,0 18.44408,4.081883 18.44408,12.396843 0,8.31495 -6.50078,12.54802 -18.44408,12.54802 H 546.84141 V 96.376797 Z m 4.23307,68.938533 h -28.57321 v -26.15431 h 28.57321 c 12.6992,0 19.50235,4.23307 19.50235,13.15275 0,9.07086 -6.80315,13.00156 -19.50235,13.00156 z" />
  <path
     id="crossout"
     style="stroke:#ff00fc;stroke-width:8"
     d="M 2.022878,3.4507919 1039.1994,611.45079 m -1037.176522,0 L 1039.1994,3.4507919" />
</svg>
