<?xml version="1.0" encoding="UTF-8" standalone="no"?>
<svg viewBox="0 0 164.68579 171.314" version="1.1" xmlns="http://www.w3.org/2000/svg"
   xmlns:rdf="http://www.w3.org/1999/02/22-rdf-syntax-ns#"
   xmlns:cc="http://creativecommons.org/ns#"
   xmlns:dc="http://purl.org/dc/elements/1.1/">
  <title>GR Logo's R only</title>
  <desc>Reversed R shape.</desc>
  <path style="fill:#000000" d="M 4.6857915,16 A 16,16 0 0 1 20.685792,0 H 148.68579 a 16,16 0 0 1 16,16 v 128 a 16,16 0 0 1 -16,16 h -16 V 48 a 16,16 0 0 0 -16,-16 H 52.685792 a 16,16 0 0 0 -16,16 v 16 h 63.999998 v 16 a 16,16 0 0 1 -4.685998,11.314 l -80,80 -11.3137095,-11.31371 a 16,16 0 0 1 0,-22.627 L 46.058382,96 H 20.685792 A 16,16 0 0 1 4.6857915,80 Z"/>
  <metadata>
    <rdf:RDF>
      <cc:Work
         rdf:about="">
        <dc:title>GR Logo's R only</dc:title>
        <dc:date>2021-08-04</dc:date>
        <dc:creator>
          <cc:Agent>
            <dc:title>Geoff Ritter</dc:title>
          </cc:Agent>
        </dc:creator>
        <dc:rights>
          <cc:Agent>
            <dc:title>© 2005 Geoff Ritter, All rights reserved.</dc:title>
          </cc:Agent>
        </dc:rights>
        <dc:description>Reversed R shape.</dc:description>
        <dc:publisher>
          <cc:Agent>
            <dc:title>Geoff Ritter</dc:title>
          </cc:Agent>
        </dc:publisher>
        <dc:subject>
          <rdf:Bag>
            <rdf:li>logo</rdf:li>
            <rdf:li>Geoff Ritter</rdf:li>
          </rdf:Bag>
        </dc:subject>
        <dc:relation>https://geoffritter.com/logo/styleguide.html</dc:relation>
        <dc:source>https://geoffritter.com/logo/gr-logo.svg</dc:source>
      </cc:Work>
    </rdf:RDF>
  </metadata>
</svg>
